<svg id="Lager_1" data-name="Lager 1" xmlns="http://www.w3.org/2000/svg" viewBox="0 0 285 151"><defs><style>.cls-1{fill:none;stroke:#000;stroke-width:4px;}</style></defs><title>Apartment</title><g id="Page-1"><g id="Desktop-HD-Copy"><g id="Group-8"><g id="Apartment"><polygon id="Stroke-1" class="cls-1" points="143.5 42.92 107.66 3.81 71.81 42.92 71.81 147.19 143.5 147.19 143.5 42.92"/><polygon id="Stroke-3" class="cls-1" points="215.19 42.92 179.34 3.81 143.5 42.92 143.5 147.19 215.19 147.19 215.19 42.92"/><polygon id="Stroke-6" class="cls-1" points="79.96 73.87 91.36 73.87 91.36 54.32 79.96 54.32 79.96 73.87"/><polygon id="Stroke-7" class="cls-1" points="101.95 73.87 113.36 73.87 113.36 54.32 101.95 54.32 101.95 73.87"/><polygon id="Stroke-8" class="cls-1" points="123.95 73.87 135.35 73.87 135.35 54.32 123.95 54.32 123.95 73.87"/><polygon id="Stroke-9" class="cls-1" points="79.96 103.2 91.36 103.2 91.36 83.65 79.96 83.65 79.96 103.2"/><polygon id="Stroke-10" class="cls-1" points="101.95 103.2 113.36 103.2 113.36 83.65 101.95 83.65 101.95 103.2"/><polygon id="Stroke-11" class="cls-1" points="123.95 103.2 135.35 103.2 135.35 83.65 123.95 83.65 123.95 103.2"/><polygon id="Stroke-12" class="cls-1" points="79.96 132.52 91.36 132.52 91.36 112.97 79.96 112.97 79.96 132.52"/><polygon id="Stroke-13" class="cls-1" points="101.95 132.52 113.36 132.52 113.36 112.97 101.95 112.97 101.95 132.52"/><polygon id="Stroke-14" class="cls-1" points="123.95 132.52 135.35 132.52 135.35 112.97 123.95 112.97 123.95 132.52"/><polygon id="Stroke-15" class="cls-1" points="151.65 73.87 163.05 73.87 163.05 54.32 151.65 54.32 151.65 73.87"/><polygon id="Stroke-16" class="cls-1" points="173.64 73.87 185.04 73.87 185.04 54.32 173.64 54.32 173.64 73.87"/><polygon id="Stroke-17" class="cls-1" points="195.63 73.87 207.04 73.87 207.04 54.32 195.63 54.32 195.63 73.87"/><polygon id="Stroke-18" class="cls-1" points="151.65 103.2 163.05 103.2 163.05 83.65 151.65 83.65 151.65 103.2"/><polygon id="Stroke-19" class="cls-1" points="173.64 103.2 185.04 103.2 185.04 83.65 173.64 83.65 173.64 103.2"/><polygon id="Stroke-20" class="cls-1" points="195.63 103.2 207.04 103.2 207.04 83.65 195.63 83.65 195.63 103.2"/><polygon id="Stroke-21" class="cls-1" points="151.65 132.52 163.05 132.52 163.05 112.97 151.65 112.97 151.65 132.52"/><polygon id="Stroke-22" class="cls-1" points="173.64 132.52 185.04 132.52 185.04 112.97 173.64 112.97 173.64 132.52"/><polygon id="Stroke-23" class="cls-1" points="195.63 132.52 207.04 132.52 207.04 112.97 195.63 112.97 195.63 132.52"/></g></g></g></g></svg>