<svg id="Lager_1" data-name="Lager 1" xmlns="http://www.w3.org/2000/svg" viewBox="0 0 285 151"><defs><style>.cls-1,.cls-2{fill:none;stroke:#000;stroke-width:4px;}.cls-2{stroke-linecap:square;}</style></defs><title>Car</title><g id="Page-1"><g id="Desktop-HD-Copy"><g id="Group-7"><g id="Car"><path id="Shape" class="cls-1" d="M202.82,72.43,197,28.72A6.59,6.59,0,0,0,190.46,23H96.54A6.59,6.59,0,0,0,90,28.72L84.18,72.43"/><polyline id="Shape-2" data-name="Shape" class="cls-2" points="110.55 128.46 110.55 148.23 80.89 148.23 80.89 128.46"/><polyline id="Shape-3" data-name="Shape" class="cls-2" points="206.11 128.46 206.11 148.23 176.46 148.23 176.46 128.46"/><path id="Shape-4" data-name="Shape" class="cls-2" d="M216,128.45H71V93.53a13.17,13.17,0,0,1,2.89-8.24L84.18,72.43H202.82L213.11,85.3A13.18,13.18,0,0,1,216,93.53Z"/><circle id="Oval" class="cls-2" cx="189.64" cy="102.09" r="9.89"/><circle id="Oval-2" data-name="Oval" class="cls-2" cx="97.36" cy="102.09" r="9.89"/><path id="Shape-5" data-name="Shape" class="cls-2" d="M133.61,102.09h19.77"/></g></g></g></g></svg>