<svg id="Lager_1" data-name="Lager 1" xmlns="http://www.w3.org/2000/svg" viewBox="0 0 285 151"><defs><style>.cls-1{fill:none;stroke:#000;stroke-linecap:round;stroke-linejoin:round;stroke-width:4px;}</style></defs><title>Degrees</title><g id="Page-1"><g id="Desktop-HD-Copy"><g id="Group-9"><g id="degrees"><path id="Oval-3" class="cls-1" d="M142.68,104.19c30.91,0,56.59-5,56.59-11.19S173.59,81.8,142.68,81.8,87.27,86.81,87.27,93,111.77,104.19,142.68,104.19Z"/><path id="Path-6" class="cls-1" d="M199.17,92.19V63.72Q183,56.06,140.66,56.06t-53.4,7.66V93.51"/><polyline id="Path-7" class="cls-1" points="87.12 76.57 56.13 59.47 143.15 14.59 230.69 59.47 199.85 76.57"/><path id="Oval-4" class="cls-1" d="M68.06,147.58q9.33-9.7,9.33-14.86a9.33,9.33,0,0,0-18.65,0Q58.73,137.87,68.06,147.58Z"/><path id="Line-3" class="cls-1" d="M68.1,66.65v55.28"/></g></g></g></g></svg>