<svg id="Lager_1" data-name="Lager 1" xmlns="http://www.w3.org/2000/svg" viewBox="0 0 285 151"><defs><style>.cls-1{fill:none;stroke:#000;stroke-linecap:square;stroke-width:4px;}</style></defs><title>Love</title><g id="Page-1"><g id="Desktop-HD-Copy"><g id="Group-11"><g id="Love"><path id="Shape" class="cls-1" d="M169.89,23.51a17.42,17.42,0,0,0-27.39,2.84,17.42,17.42,0,0,0-27.39-2.84,18.86,18.86,0,0,0,0,26L142.5,77.89l27.39-28.35A18.86,18.86,0,0,0,169.89,23.51Z"/><circle id="Oval" class="cls-1" cx="191.4" cy="82.57" r="16.3"/><circle id="Oval-2" data-name="Oval" class="cls-1" cx="93.6" cy="82.57" r="16.3"/><path id="Shape-2" data-name="Shape" class="cls-1" d="M126.2,147.77v-16.2a10.87,10.87,0,0,0-5.34-9.37,53.18,53.18,0,0,0-27.26-7c-13,0-22.08,3.87-27.31,7A10.86,10.86,0,0,0,61,131.51v16.26Z"/><path id="Shape-3" data-name="Shape" class="cls-1" d="M224,147.77v-16.2a10.87,10.87,0,0,0-5.34-9.37,53.18,53.18,0,0,0-27.26-7c-13,0-22.08,3.87-27.31,7a10.86,10.86,0,0,0-5.29,9.34v16.26Z"/></g></g></g></g></svg>