<svg id="Lager_1" data-name="Lager 1" xmlns="http://www.w3.org/2000/svg" viewBox="0 0 285 151"><defs><style>.cls-1{fill:none;stroke:#000;stroke-width:4px;}</style></defs><title>Tattoo</title><g id="Page-1"><g id="Desktop-HD-Copy"><g id="Group-10"><g id="tattoo"><polyline id="Stroke-1" class="cls-1" points="114.86 44.43 179.15 108.73 225.23 62.65 176.79 14.21"/><path id="Stroke-3" class="cls-1" d="M95.57,120.3,85.49,110.23a6.38,6.38,0,0,1,0-9l32.79-32.79a6.38,6.38,0,0,1,9,0l10.07,10.07a6.38,6.38,0,0,1,0,9L104.57,120.3A6.38,6.38,0,0,1,95.57,120.3Z"/><path id="Stroke-5" class="cls-1" d="M148.17,74.53l-1.38-1.38a9.12,9.12,0,0,1,0-12.86L176.58,30.5a9.12,9.12,0,0,1,12.86,0l1.38,1.38a9.12,9.12,0,0,1,0,12.86L161,74.53A9.12,9.12,0,0,1,148.17,74.53Z"/><path id="Stroke-7" class="cls-1" d="M166.83,93.19l-1.38-1.38a9.12,9.12,0,0,1,0-12.86l29.79-29.79a9.12,9.12,0,0,1,12.86,0l1.38,1.38a9.12,9.12,0,0,1,0,12.86L179.69,93.19A9.12,9.12,0,0,1,166.83,93.19Z"/><path id="Stroke-9" class="cls-1" d="M70.17,135.62a6.38,6.38,0,0,1,0-9L85.81,111l9,9L79.17,135.62A6.38,6.38,0,0,1,70.17,135.62Z"/><path id="Stroke-11" class="cls-1" d="M56.67,149.13,70.81,135"/><path id="Stroke-14" class="cls-1" d="M116.84,59.49l13.07-13.07"/><path id="Stroke-16" class="cls-1" d="M131.57,74.22l6.54-6.54"/><path id="Stroke-18" class="cls-1" d="M183.92,113.5l-13.07-13.07"/><path id="Stroke-20" class="cls-1" d="M230,67.42,216.93,54.34"/><path id="Stroke-22" class="cls-1" d="M209.68,20.75h8.59"/><path id="Stroke-24" class="cls-1" d="M207,27.77a9.32,9.32,0,1,1,0-13.18A9.32,9.32,0,0,1,207,27.77Z"/></g></g></g></g></svg>